<?xml version="1.0" encoding="UTF-8"?>
<svg width="102px" height="44px" viewBox="0 0 102 44" version="1.1" xmlns="http://www.w3.org/2000/svg" xmlns:xlink="http://www.w3.org/1999/xlink">
    <title>Vida-White-EmiratesHills-EN</title>
    <g id="Vida-White-EmiratesHills-EN" stroke="none" stroke-width="1" fill="none" fill-rule="evenodd">
        <g id="Group" transform="translate(13.000000, 10.000000)" fill="#004D71">
            <path d="M35.6926,0.577174234 C42.3006,0.577174234 50.7686,0.632174234 50.7686,6.56717423 C50.7686,12.5021742 42.3006,12.5331742 35.6926,12.5331742 L35.6926,0.577174234 Z M33.8056,0.00617423413 L33.8056,13.1301742 C41.8926,13.1301742 52.2956,13.5881742 52.5866,6.56717423 C52.2956,-0.453825766 41.8926,0.00617423413 33.8056,0.00617423413 L33.8056,0.00617423413 Z" id="Fill-1"></path>
            <polygon id="Fill-3" points="24.4213 13.1490742 26.2993 13.1490742 26.2993 0.00707423413 24.4213 0.00707423413"></polygon>
            <polygon id="Fill-5" points="18.78 0.00637423413 9.391 13.1473742 -1.42108547e-14 0.00637423413 2.305 0.00637423413 10.081 10.8623742 17.879 0.00637423413"></polygon>
            <polygon id="Fill-6" points="56.3562 13.1474742 65.7452 0.00647423413 75.1362 13.1474742 72.8312 13.1474742 65.0552 2.29147423 57.2572 13.1474742"></polygon>
            <polygon id="Fill-7" points="11.4157 19.8080742 14.3457 19.8080742 14.3457 20.3850742 12.0317 20.3850742 12.0317 21.7380742 14.1857 21.7380742 14.1857 22.3150742 12.0317 22.3150742 12.0317 23.7700742 14.4607 23.7700742 14.4607 24.3470742 11.4157 24.3470742"></polygon>
            <polygon id="Fill-8" points="15.6091 19.8080742 16.5261 19.8080742 17.9681 23.2450742 17.9941 23.2450742 19.4231 19.8080742 20.3401 19.8080742 20.3401 24.3470742 19.7251 24.3470742 19.7251 20.6160742 19.7121 20.6160742 18.1801 24.3470742 17.7691 24.3470742 16.2371 20.6160742 16.2241 20.6160742 16.2241 24.3470742 15.6091 24.3470742"></polygon>
            <polygon id="Fill-9" points="21.7833 24.3470742 22.3993 24.3470742 22.3993 19.8080742 21.7833 19.8080742"></polygon>
            <path d="M24.5012,21.8085742 L25.3092,21.8085742 C25.4292,21.8085742 25.5472,21.7985742 25.6652,21.7795742 C25.7822,21.7605742 25.8872,21.7255742 25.9792,21.6735742 C26.0712,21.6225742 26.1452,21.5485742 26.2002,21.4525742 C26.2562,21.3565742 26.2842,21.2315742 26.2842,21.0775742 C26.2842,20.9235742 26.2562,20.7985742 26.2002,20.7025742 C26.1452,20.6065742 26.0712,20.5325742 25.9792,20.4815742 C25.8872,20.4305742 25.7822,20.3945742 25.6652,20.3755742 C25.5472,20.3565742 25.4292,20.3465742 25.3092,20.3465742 L24.5012,20.3465742 L24.5012,21.8085742 Z M23.8862,19.8085742 L25.4822,19.8085742 C25.7732,19.8085742 26.0122,19.8475742 26.2002,19.9265742 C26.3882,20.0055742 26.5372,20.1055742 26.6462,20.2275742 C26.7552,20.3495742 26.8312,20.4865742 26.8742,20.6385742 C26.9162,20.7895742 26.9382,20.9365742 26.9382,21.0775742 C26.9382,21.2225742 26.9122,21.3625742 26.8602,21.4975742 C26.8092,21.6325742 26.7352,21.7535742 26.6392,21.8625742 C26.5432,21.9715742 26.4262,22.0635742 26.2872,22.1385742 C26.1482,22.2135742 25.9932,22.2595742 25.8222,22.2765742 L27.1112,24.3475742 L26.3412,24.3475742 L25.1872,22.3475742 L24.5012,22.3475742 L24.5012,24.3475742 L23.8862,24.3475742 L23.8862,19.8085742 Z" id="Fill-10"></path>
            <path d="M30.6501,22.6870742 L29.8031,20.6030742 L29.7911,20.6030742 L28.9321,22.6870742 L30.6501,22.6870742 Z M29.5471,19.8080742 L30.1051,19.8080742 L32.0471,24.3470742 L31.3291,24.3470742 L30.8741,23.2260742 L28.7131,23.2260742 L28.2651,24.3470742 L27.5461,24.3470742 L29.5471,19.8080742 Z" id="Fill-11"></path>
            <polygon id="Fill-12" points="33.3171 20.3852742 31.8551 20.3852742 31.8551 19.8082742 35.3941 19.8082742 35.3941 20.3852742 33.9321 20.3852742 33.9321 24.3472742 33.3171 24.3472742"></polygon>
            <polygon id="Fill-13" points="36.3689 19.8080742 39.2989 19.8080742 39.2989 20.3850742 36.9849 20.3850742 36.9849 21.7380742 39.1389 21.7380742 39.1389 22.3150742 36.9849 22.3150742 36.9849 23.7700742 39.4139 23.7700742 39.4139 24.3470742 36.3689 24.3470742"></polygon>
            <path d="M40.7414,23.3984742 C40.8524,23.5654742 40.9944,23.6884742 41.1674,23.7674742 C41.3414,23.8464742 41.5194,23.8854742 41.7024,23.8854742 C41.8054,23.8854742 41.9104,23.8694742 42.0174,23.8374742 C42.1234,23.8054742 42.2214,23.7574742 42.3084,23.6934742 C42.3964,23.6294742 42.4684,23.5504742 42.5234,23.4564742 C42.5794,23.3624742 42.6074,23.2534742 42.6074,23.1294742 C42.6074,22.9544742 42.5514,22.8204742 42.4404,22.7284742 C42.3294,22.6364742 42.1914,22.5594742 42.0264,22.4974742 C41.8624,22.4354742 41.6824,22.3764742 41.4884,22.3184742 C41.2934,22.2604742 41.1144,22.1804742 40.9494,22.0774742 C40.7844,21.9754742 40.6474,21.8374742 40.5364,21.6644742 C40.4254,21.4914742 40.3694,21.2564742 40.3694,20.9614742 C40.3694,20.8294742 40.3984,20.6884742 40.4554,20.5394742 C40.5134,20.3894742 40.6044,20.2524742 40.7284,20.1284742 C40.8524,20.0044742 41.0114,19.9004742 41.2064,19.8174742 C41.4004,19.7344742 41.6344,19.6924742 41.9084,19.6924742 C42.1564,19.6924742 42.3934,19.7274742 42.6194,19.7954742 C42.8464,19.8634742 43.0454,20.0024742 43.2164,20.2114742 L42.7164,20.6674742 C42.6394,20.5474742 42.5304,20.4514742 42.3884,20.3784742 C42.2484,20.3064742 42.0874,20.2694742 41.9084,20.2694742 C41.7374,20.2694742 41.5954,20.2924742 41.4814,20.3364742 C41.3684,20.3814742 41.2774,20.4394742 41.2094,20.5104742 C41.1404,20.5804742 41.0934,20.6564742 41.0654,20.7374742 C41.0374,20.8184742 41.0234,20.8944742 41.0234,20.9614742 C41.0234,21.1544742 41.0784,21.3014742 41.1904,21.4044742 C41.3014,21.5074742 41.4394,21.5904742 41.6034,21.6544742 C41.7684,21.7184742 41.9474,21.7764742 42.1424,21.8274742 C42.3364,21.8784742 42.5164,21.9504742 42.6804,22.0424742 C42.8454,22.1344742 42.9834,22.2584742 43.0944,22.4144742 C43.2054,22.5704742 43.2614,22.7854742 43.2614,23.0584742 C43.2614,23.2764742 43.2194,23.4734742 43.1364,23.6484742 C43.0524,23.8234742 42.9404,23.9714742 42.7994,24.0904742 C42.6584,24.2104742 42.4914,24.3024742 42.2994,24.3664742 C42.1074,24.4304742 41.9014,24.4624742 41.6834,24.4624742 C41.3934,24.4624742 41.1174,24.4114742 40.8564,24.3094742 C40.5954,24.2064742 40.3884,24.0484742 40.2354,23.8344742 L40.7414,23.3984742 Z" id="Fill-14"></path>
            <polygon id="Fill-15" points="46.5949 19.8080742 47.2099 19.8080742 47.2099 21.6930742 49.5639 21.6930742 49.5639 19.8080742 50.1789 19.8080742 50.1789 24.3470742 49.5639 24.3470742 49.5639 22.2700742 47.2099 22.2700742 47.2099 24.3470742 46.5949 24.3470742"></polygon>
            <polygon id="Fill-16" points="51.6663 24.3470742 52.2823 24.3470742 52.2823 19.8080742 51.6663 19.8080742"></polygon>
            <polygon id="Fill-17" points="53.7693 19.8080742 54.3853 19.8080742 54.3853 23.7700742 56.4683 23.7700742 56.4683 24.3470742 53.7693 24.3470742"></polygon>
            <polygon id="Fill-18" points="57.4172 19.8080742 58.0332 19.8080742 58.0332 23.7700742 60.1162 23.7700742 60.1162 24.3470742 57.4172 24.3470742"></polygon>
            <path d="M61.1999,23.3984742 C61.3109,23.5654742 61.4529,23.6884742 61.6269,23.7674742 C61.7999,23.8464742 61.9779,23.8854742 62.1619,23.8854742 C62.2639,23.8854742 62.3689,23.8694742 62.4759,23.8374742 C62.5829,23.8054742 62.6799,23.7574742 62.7679,23.6934742 C62.8549,23.6294742 62.9269,23.5504742 62.9829,23.4564742 C63.0379,23.3624742 63.0659,23.2534742 63.0659,23.1294742 C63.0659,22.9544742 63.0109,22.8204742 62.8989,22.7284742 C62.7879,22.6364742 62.6499,22.5594742 62.4859,22.4974742 C62.3209,22.4354742 62.1409,22.3764742 61.9469,22.3184742 C61.7529,22.2604742 61.5729,22.1804742 61.4079,22.0774742 C61.2439,21.9754742 61.1059,21.8374742 60.9949,21.6644742 C60.8839,21.4914742 60.8279,21.2564742 60.8279,20.9614742 C60.8279,20.8294742 60.8569,20.6884742 60.9149,20.5394742 C60.9719,20.3894742 61.0629,20.2524742 61.1869,20.1284742 C61.3109,20.0044742 61.4709,19.9004742 61.6649,19.8174742 C61.8599,19.7344742 62.0939,19.6924742 62.3669,19.6924742 C62.6149,19.6924742 62.8519,19.7274742 63.0789,19.7954742 C63.3049,19.8634742 63.5039,20.0024742 63.6749,20.2114742 L63.1749,20.6674742 C63.0979,20.5474742 62.9889,20.4514742 62.8479,20.3784742 C62.7069,20.3064742 62.5469,20.2694742 62.3669,20.2694742 C62.1959,20.2694742 62.0539,20.2924742 61.9409,20.3364742 C61.8269,20.3814742 61.7369,20.4394742 61.6679,20.5104742 C61.5999,20.5804742 61.5519,20.6564742 61.5239,20.7374742 C61.4959,20.8184742 61.4819,20.8944742 61.4819,20.9614742 C61.4819,21.1544742 61.5379,21.3014742 61.6489,21.4044742 C61.7599,21.5074742 61.8979,21.5904742 62.0619,21.6544742 C62.2269,21.7184742 62.4069,21.7764742 62.6009,21.8274742 C62.7959,21.8784742 62.9749,21.9504742 63.1389,22.0424742 C63.3039,22.1344742 63.4419,22.2584742 63.5529,22.4144742 C63.6639,22.5704742 63.7199,22.7854742 63.7199,23.0584742 C63.7199,23.2764742 63.6779,23.4734742 63.5949,23.6484742 C63.5119,23.8234742 63.3989,23.9714742 63.2579,24.0904742 C63.1169,24.2104742 62.9499,24.3024742 62.7579,24.3664742 C62.5659,24.4304742 62.3609,24.4624742 62.1429,24.4624742 C61.8519,24.4624742 61.5759,24.4114742 61.3159,24.3094742 C61.0549,24.2064742 60.8469,24.0484742 60.6939,23.8344742 L61.1999,23.3984742 Z" id="Fill-19"></path>
        </g>
    </g>
</svg>
